<?xml version="1.0" encoding="UTF-8" standalone="no"?>
<!DOCTYPE svg PUBLIC "-//W3C//DTD SVG 1.1//EN" "http://www.w3.org/Graphics/SVG/1.1/DTD/svg11.dtd">
<svg width="100%" height="100%" viewBox="0 0 200 200" version="1.1" xmlns="http://www.w3.org/2000/svg" xmlns:xlink="http://www.w3.org/1999/xlink" xml:space="preserve" xmlns:serif="http://www.serif.com/" style="fill-rule:evenodd;clip-rule:evenodd;stroke-linecap:round;stroke-linejoin:round;stroke-miterlimit:1.5;">
    <g>
        <clipPath id="_clip1">
            <circle cx="100" cy="100" r="96.055"/>
        </clipPath>
        <g clip-path="url(#_clip1)">
            <g transform="matrix(1.2663,0,0,1.2663,-54.1866,-60.3392)">
                <circle cx="121.761" cy="126.62" r="75.854" style="fill:rgb(18,24,43);"/>
            </g>
            <g transform="matrix(1,0,0,1,0,-3.14928)">
                <path d="M3.945,133.18C33.381,118.895 65.657,117.958 100,126.739C131.588,134.815 159.197,150.93 183.849,150.848L187.898,205.324L0,200L3.945,133.18Z" style="fill:rgb(224,224,224);stroke:rgb(18,24,43);stroke-width:2.08px;"/>
            </g>
            <g transform="matrix(1.5393,0.0898832,-0.0582931,0.9983,-49.2966,7.0805)">
                <path d="M3.945,133.18C26.28,122.341 52.818,113.264 77.376,117.846C85.184,119.302 92.791,122.139 100,126.739C128.471,144.905 156.066,161.067 183.849,150.848L187.898,205.324L0,200L3.945,133.18Z" style="fill:rgb(224,224,224);stroke:rgb(18,24,43);stroke-width:1.6px;"/>
            </g>
            <g transform="matrix(-0.953064,0,0,1,249.188,2.00574)">
                <path d="M3.945,133.18C33.381,118.895 65.657,117.958 100,126.739C131.588,134.815 159.197,150.93 183.849,150.848L187.898,205.324L0,200L3.945,133.18Z" style="fill:rgb(224,224,224);stroke:rgb(18,24,43);stroke-width:2.13px;"/>
            </g>
            <g transform="matrix(-0.937387,0.172149,0.180627,0.983552,230.293,-1.76527)">
                <path d="M3.945,133.18C33.381,118.895 65.657,117.958 100,126.739C131.588,134.815 159.197,150.93 183.849,150.848L187.898,205.324L0,200L3.945,133.18Z" style="fill:rgb(224,224,224);stroke:rgb(18,24,43);stroke-width:2.13px;"/>
            </g>
            <g transform="matrix(1,0,0,1,-0.230332,-5.2224)">
                <path d="M0,146.437C32.778,147.35 64.17,152.694 93.949,163.205C131.055,176.302 169.064,167.631 203.014,153.41L205.499,209.005L-19.988,216.363L-11.35,166.886L0,146.437Z" style="fill:rgb(224,224,224);stroke:rgb(18,24,43);stroke-width:2.08px;"/>
            </g>
            <g transform="matrix(1,0,0,1,0,-3.14928)">
                <path d="M-1.683,166.886C29.589,166.28 39.512,169.183 74.892,177.715C112.446,186.771 158.902,171.915 200,152.694L201.598,218.919L-4.161,214.29L-11.933,176.996L-1.683,166.886Z" style="fill:rgb(224,224,224);stroke:rgb(18,24,43);stroke-width:2.08px;"/>
            </g>
            <g transform="matrix(1,0,0,1,3.55271e-14,-3.14928)">
                <path d="M55.353,192.286C78.948,188.261 116.218,187.817 149.795,191.854" style="fill:rgb(224,224,224);stroke:rgb(18,24,43);stroke-width:2.08px;"/>
            </g>
            <g transform="matrix(0.405979,0,0,0.405979,22.9976,21.0567)">
                <path d="M86.24,43.161C86.369,42.603 86.866,42.208 87.439,42.208C88.012,42.208 88.509,42.603 88.639,43.161C89.595,47.28 90.775,52.362 90.775,52.362C90.859,52.733 91.046,53.073 91.315,53.341C91.584,53.61 91.923,53.797 92.294,53.881C92.294,53.881 97.509,55.06 101.739,56.016C102.301,56.143 102.699,56.641 102.699,57.217C102.699,57.793 102.301,58.291 101.739,58.418C97.514,59.373 92.294,60.553 92.294,60.553C91.923,60.637 91.584,60.824 91.315,61.093C91.046,61.361 90.859,61.701 90.775,62.072C90.775,62.072 89.597,67.287 88.64,71.517C88.514,72.079 88.015,72.477 87.439,72.477C86.864,72.477 86.365,72.079 86.238,71.517C85.283,67.292 84.103,62.071 84.103,62.071C84.019,61.701 83.832,61.361 83.563,61.093C83.295,60.824 82.955,60.637 82.585,60.553C82.585,60.553 77.364,59.373 73.139,58.418C72.578,58.291 72.179,57.793 72.179,57.217C72.179,56.641 72.578,56.143 73.139,56.016C77.37,55.06 82.585,53.881 82.585,53.881C82.955,53.797 83.295,53.61 83.563,53.341C83.832,53.073 84.019,52.733 84.103,52.362C84.103,52.362 85.283,47.28 86.24,43.161Z" style="fill:rgb(224,224,224);"/>
            </g>
            <g transform="matrix(0.310414,0,0,0.310414,8.12779,72.5773)">
                <path d="M85.87,44.752C86.04,44.022 86.69,43.505 87.439,43.505C88.188,43.505 88.839,44.022 89.008,44.752C89.874,48.48 90.775,52.362 90.775,52.362C90.859,52.733 91.046,53.073 91.315,53.341C91.584,53.61 91.923,53.797 92.294,53.881C92.294,53.881 96.281,54.782 100.103,55.646C100.837,55.812 101.359,56.464 101.359,57.217C101.359,57.97 100.837,58.622 100.103,58.788C96.276,59.653 92.294,60.553 92.294,60.553C91.923,60.637 91.584,60.824 91.315,61.093C91.046,61.361 90.859,61.701 90.775,62.071C90.775,62.071 89.874,66.059 89.01,69.881C88.844,70.615 88.192,71.136 87.439,71.136C86.686,71.136 86.034,70.615 85.868,69.881C85.003,66.053 84.103,62.072 84.103,62.072C84.019,61.701 83.832,61.361 83.563,61.093C83.295,60.824 82.955,60.637 82.585,60.553C82.585,60.553 78.597,59.652 74.775,58.788C74.041,58.622 73.52,57.97 73.52,57.217C73.52,56.464 74.041,55.812 74.775,55.646C78.597,54.782 82.585,53.881 82.585,53.881C82.955,53.797 83.295,53.61 83.563,53.341C83.832,53.073 84.019,52.733 84.103,52.362C84.103,52.362 85.004,48.48 85.87,44.752Z" style="fill:rgb(224,224,224);"/>
            </g>
            <g transform="matrix(0.354384,0,0,0.354384,98.8665,18.8764)">
                <path d="M86.065,43.913C86.213,43.274 86.783,42.821 87.439,42.821C88.095,42.821 88.665,43.274 88.814,43.913C89.733,47.873 90.775,52.362 90.775,52.362C90.859,52.733 91.046,53.073 91.315,53.341C91.584,53.61 91.923,53.797 92.294,53.881C92.294,53.881 92.294,53.881 92.294,53.881C92.307,53.884 96.905,54.923 100.966,55.841C101.609,55.986 102.065,56.558 102.065,57.217C102.065,57.876 101.609,58.448 100.966,58.593C96.899,59.512 92.294,60.553 92.294,60.553C91.923,60.637 91.584,60.824 91.315,61.093C91.046,61.361 90.859,61.701 90.775,62.071C90.775,62.071 89.733,66.683 88.815,70.743C88.67,71.386 88.099,71.843 87.439,71.843C86.78,71.843 86.208,71.386 86.063,70.743C85.144,66.677 84.103,62.072 84.103,62.072C84.019,61.701 83.832,61.361 83.563,61.093C83.295,60.824 82.955,60.637 82.585,60.553C82.585,60.553 77.979,59.512 73.913,58.593C73.27,58.448 72.813,57.876 72.813,57.217C72.813,56.558 73.27,55.986 73.913,55.841C77.973,54.923 82.585,53.881 82.585,53.881C82.955,53.797 83.295,53.61 83.563,53.341C83.832,53.073 84.019,52.733 84.103,52.362C84.103,52.362 85.145,47.873 86.065,43.913Z" style="fill:rgb(224,224,224);"/>
            </g>
            <g transform="matrix(0.358236,0,0,0.358236,146.91,79.4612)">
                <path d="M86.08,43.85C86.226,43.217 86.79,42.77 87.439,42.77C88.088,42.77 88.652,43.217 88.799,43.85C89.722,47.825 90.775,52.362 90.775,52.362C90.859,52.733 91.046,53.073 91.315,53.341C91.584,53.61 91.923,53.797 92.294,53.881C92.294,53.881 96.955,54.934 101.031,55.856C101.667,55.999 102.119,56.565 102.119,57.217C102.119,57.869 101.667,58.435 101.031,58.578C96.955,59.5 92.307,60.55 92.294,60.553C92.294,60.553 92.294,60.553 92.294,60.553C91.923,60.637 91.584,60.824 91.315,61.093C91.046,61.361 90.859,61.701 90.775,62.071C90.775,62.071 90.775,62.071 90.775,62.072C90.772,62.085 89.722,66.733 88.801,70.809C88.657,71.445 88.091,71.897 87.439,71.897C86.787,71.897 86.222,71.445 86.078,70.809C85.157,66.733 84.103,62.071 84.103,62.071C84.019,61.701 83.832,61.361 83.563,61.093C83.295,60.824 82.955,60.637 82.585,60.553C82.585,60.553 77.924,59.5 73.847,58.578C73.211,58.435 72.759,57.869 72.759,57.217C72.759,56.565 73.211,55.999 73.847,55.856C77.924,54.934 82.571,53.884 82.585,53.881C82.585,53.881 82.585,53.881 82.585,53.881C82.955,53.797 83.295,53.61 83.563,53.341C83.832,53.073 84.019,52.733 84.103,52.362C84.103,52.362 85.157,47.825 86.08,43.85Z" style="fill:rgb(224,224,224);"/>
            </g>
            <g transform="matrix(0.475117,0,0,0.475117,75.5749,46.0356)">
                <path d="M86.414,42.409C86.525,41.932 86.95,41.595 87.439,41.595C87.929,41.595 88.354,41.932 88.464,42.409C89.445,46.632 90.775,52.362 90.775,52.362C90.859,52.733 91.046,53.073 91.315,53.341C91.584,53.61 91.923,53.797 92.294,53.881C92.294,53.881 98.179,55.211 102.513,56.19C102.993,56.299 103.333,56.725 103.333,57.217C103.333,57.709 102.993,58.135 102.513,58.243C98.179,59.223 92.294,60.553 92.294,60.553C91.923,60.637 91.584,60.824 91.315,61.093C91.046,61.361 90.859,61.701 90.775,62.072C90.775,62.072 89.446,67.953 88.466,72.291C88.357,72.77 87.931,73.111 87.439,73.111C86.947,73.111 86.521,72.77 86.413,72.291C85.432,67.953 84.103,62.072 84.103,62.072C84.019,61.701 83.832,61.361 83.563,61.093C83.295,60.824 82.955,60.637 82.585,60.553C82.585,60.553 76.703,59.224 72.366,58.243C71.886,58.135 71.545,57.709 71.545,57.217C71.545,56.725 71.886,56.299 72.366,56.19C76.703,55.21 82.585,53.881 82.585,53.881C82.955,53.797 83.295,53.61 83.563,53.341C83.832,53.073 84.019,52.733 84.103,52.362C84.103,52.362 85.434,46.632 86.414,42.409Z" style="fill:rgb(224,224,224);"/>
            </g>
            <g id="Layer1">
                <g transform="matrix(1,0,0,1,-4.85886,1.97953)">
                    <circle cx="33.11" cy="57.427" r="2.16" style="fill:white;"/>
                </g>
                <g transform="matrix(1,0,0,1,23.9344,36.7114)">
                    <circle cx="33.11" cy="57.427" r="2.16" style="fill:white;"/>
                </g>
                <g transform="matrix(0.54186,0,0,0.54186,4.19233,53.663)">
                    <circle cx="33.11" cy="57.427" r="2.16" style="fill:white;"/>
                </g>
                <g transform="matrix(0.54186,0,0,0.54186,23.4838,44.4492)">
                    <circle cx="33.11" cy="57.427" r="2.16" style="fill:white;"/>
                </g>
                <g transform="matrix(0.54186,0,0,0.54186,29.6744,5.00243)">
                    <circle cx="33.11" cy="57.427" r="2.16" style="fill:white;"/>
                </g>
                <g transform="matrix(0.54186,0,0,0.54186,105.257,-11.1218)">
                    <circle cx="33.11" cy="57.427" r="2.16" style="fill:white;"/>
                </g>
                <g transform="matrix(0.54186,0,0,0.54186,125.988,56.0043)">
                    <circle cx="33.11" cy="57.427" r="2.16" style="fill:white;"/>
                </g>
                <g transform="matrix(0.54186,0,0,0.54186,107.598,60.3232)">
                    <circle cx="33.11" cy="57.427" r="2.16" style="fill:white;"/>
                </g>
                <g transform="matrix(0.54186,0,0,0.54186,46.2683,80.6225)">
                    <circle cx="33.11" cy="57.427" r="2.16" style="fill:white;"/>
                </g>
                <g transform="matrix(0.54186,0,0,0.54186,142.15,80.6225)">
                    <circle cx="33.11" cy="57.427" r="2.16" style="fill:white;"/>
                </g>
                <g transform="matrix(0.54186,0,0,0.54186,161.297,47.9422)">
                    <circle cx="33.11" cy="57.427" r="2.16" style="fill:white;"/>
                </g>
                <g transform="matrix(0.54186,0,0,0.54186,153.667,29.6585)">
                    <circle cx="33.11" cy="57.427" r="2.16" style="fill:white;"/>
                </g>
                <g transform="matrix(0.54186,0,0,0.54186,73.7658,41.8956)">
                    <circle cx="33.11" cy="57.427" r="2.16" style="fill:white;"/>
                </g>
                <g transform="matrix(1.24989,0,0,1.24989,39.0531,20.3812)">
                    <circle cx="33.11" cy="57.427" r="2.16" style="fill:white;"/>
                </g>
                <g transform="matrix(1.24989,0,0,1.24989,41.7534,-19.9028)">
                    <circle cx="33.11" cy="57.427" r="2.16" style="fill:white;"/>
                </g>
                <g transform="matrix(1.24989,0,0,1.24989,113.017,-29.6241)">
                    <circle cx="33.11" cy="57.427" r="2.16" style="fill:white;"/>
                </g>
                <g transform="matrix(1.24989,0,0,1.24989,-24.1112,40.5593)">
                    <circle cx="33.11" cy="57.427" r="2.16" style="fill:white;"/>
                </g>
                <g transform="matrix(1,0,0,1,32.9323,18.0187)">
                    <circle cx="33.11" cy="57.427" r="2.16" style="fill:white;"/>
                </g>
                <g transform="matrix(1,0,0,1,50.0282,-33.4492)">
                    <circle cx="33.11" cy="57.427" r="2.16" style="fill:white;"/>
                </g>
                <g transform="matrix(1,0,0,1,116.253,1.97953)">
                    <circle cx="33.11" cy="57.427" r="2.16" style="fill:white;"/>
                </g>
                <g transform="matrix(1,0,0,1,114.092,61.0056)">
                    <circle cx="33.11" cy="57.427" r="2.16" style="fill:white;"/>
                </g>
                <g transform="matrix(1,0,0,1,79.5404,56.6848)">
                    <circle cx="33.11" cy="57.427" r="2.16" style="fill:white;"/>
                </g>
                <g transform="matrix(1,0,0,1,131.368,22.3395)">
                    <circle cx="33.11" cy="57.427" r="2.16" style="fill:white;"/>
                </g>
                <g transform="matrix(1,0,0,1,75.2196,-10.4128)">
                    <circle cx="33.11" cy="57.427" r="2.16" style="fill:white;"/>
                </g>
            </g>
        </g>
    </g>
</svg>
